<svg xmlns="http://www.w3.org/2000/svg" version="1.1" xmlns:xlink="http://www.w3.org/1999/xlink" width="200" height="200"><svg xmlns="http://www.w3.org/2000/svg" version="1.1" xmlns:xlink="http://www.w3.org/1999/xlink" viewBox="0 0 200 200"><rect width="200" height="200" fill="url('#gradient')"></rect><defs><linearGradient id="SvgjsLinearGradient1001" gradientTransform="rotate(45 0.5 0.5)"><stop offset="0%" stop-color="#dee90b"></stop><stop offset="100%" stop-color="#d9e241"></stop></linearGradient></defs><g><g fill="#1b3855" transform="matrix(3.8161490683229813,0,0,3.8161490683229813,7.612046741328626,127.11811418414857)" stroke="#0e5278" stroke-width="0.2"><path d="M8.41-3.78L8.41-3.78Q8.41-4.53 7.88-4.95Q7.34-5.37 6.01-5.82Q4.67-6.27 3.82-6.69L3.82-6.69Q1.05-8.05 1.05-10.42L1.05-10.42Q1.05-11.60 1.74-12.50Q2.43-13.41 3.69-13.91Q4.95-14.41 6.52-14.41L6.52-14.41Q8.06-14.41 9.27-13.87Q10.49-13.32 11.16-12.31Q11.84-11.30 11.84-10L11.84-10L8.42-10Q8.42-10.87 7.89-11.35Q7.35-11.83 6.45-11.83L6.45-11.83Q5.53-11.83 5.00-11.42Q4.46-11.02 4.46-10.39L4.46-10.39Q4.46-9.84 5.05-9.40Q5.63-8.96 7.11-8.48Q8.58-8.01 9.53-7.46L9.53-7.46Q11.84-6.13 11.84-3.80L11.84-3.80Q11.84-1.93 10.43-0.87Q9.02 0.20 6.57 0.20L6.57 0.20Q4.84 0.20 3.44-0.42Q2.04-1.04 1.33-2.12Q0.63-3.20 0.63-4.61L0.63-4.61L4.06-4.61Q4.06-3.47 4.65-2.92Q5.24-2.38 6.57-2.38L6.57-2.38Q7.42-2.38 7.92-2.75Q8.41-3.12 8.41-3.78ZM13.59-14.22L18.10-14.22L21.27-4.33L24.43-14.22L28.95-14.22L28.95 0L25.51 0L25.51-3.32L25.84-10.12L22.40 0L20.14 0L16.69-10.13L17.02-3.32L17.02 0L13.59 0L13.59-14.22ZM36.74-4.82L34.55-4.82L34.55 0L31.12 0L31.12-14.22L36.80-14.22Q38.43-14.22 39.68-13.62Q40.94-13.02 41.63-11.91Q42.31-10.80 42.31-9.39L42.31-9.39Q42.31-7.31 40.83-6.07Q39.34-4.82 36.74-4.82L36.74-4.82ZM34.55-11.57L34.55-7.47L36.80-7.47Q37.79-7.47 38.32-7.97Q38.84-8.47 38.84-9.38L38.84-9.38Q38.84-10.37 38.30-10.97Q37.76-11.56 36.84-11.57L36.84-11.57L34.55-11.57ZM47.79-14.22L47.79 0L44.38 0L44.38-14.22L47.79-14.22Z"></path></g></g></svg><style>@media (prefers-color-scheme: light) { :root { filter: none; } }
@media (prefers-color-scheme: dark) { :root { filter: none; } }
</style></svg>